<?xml version="1.0" encoding="UTF-8" standalone="no"?>
<!DOCTYPE svg PUBLIC "-//W3C//DTD SVG 1.1//EN" "http://www.w3.org/Graphics/SVG/1.1/DTD/svg11.dtd">
<svg width="100%" height="100%" viewBox="0 0 69 69" version="1.1" xmlns="http://www.w3.org/2000/svg" xmlns:xlink="http://www.w3.org/1999/xlink" xml:space="preserve" xmlns:serif="http://www.serif.com/" style="fill-rule:evenodd;clip-rule:evenodd;stroke-linejoin:round;">
    <g transform="matrix(1,0,0,1,-291.409947,-361.597729)">
        <g id="Outline" transform="matrix(0.18,0,0,0.18,508.41002,578.425516)">
            <path d="M-1035,-1200L-1200,-1035L-1200,-965L-1090,-830L-1010,-830L-830,-1010L-830,-1090L-975,-1200L-1035,-1200Z" style="fill:none;stroke:rgb(70,80,90);stroke-width:1.11px;stroke-dasharray:3.333,3.333;"/>
        </g>
        <path id="octagon.11.4" d="M297.644,404.36C297.396,404.093 297.054,403.936 296.69,403.921C296.69,403.921 296.69,403.921 296.69,403.921C293.657,403.8 291.293,401.239 291.414,398.206C291.504,395.974 292.913,394.105 294.86,393.321C295.666,392.996 296.343,392.414 296.786,391.665C298.824,388.306 304.111,379.359 305.339,377.281C305.51,376.991 305.717,376.725 305.955,376.487C306.145,376.297 306.376,376.066 306.552,375.89C306.736,375.705 306.943,375.545 307.167,375.413C309.082,374.281 318.616,368.647 322.015,366.639C322.722,366.221 323.283,365.595 323.622,364.847C324.423,362.982 326.256,361.67 328.42,361.601C331.454,361.504 333.996,363.888 334.093,366.922C334.093,366.922 334.097,367.07 334.102,367.211C334.107,367.371 334.176,367.522 334.293,367.631C335.497,368.749 342.243,375.013 343.18,375.883C343.252,375.95 343.327,376.014 343.403,376.075C344.276,376.773 349.879,381.256 352.206,383.117C352.86,383.641 353.672,383.926 354.51,383.926C354.51,383.926 354.51,383.926 354.51,383.926C357.546,383.926 360.01,386.39 360.01,389.426C360.01,391.783 358.524,393.795 356.439,394.577C355.625,394.882 354.934,395.446 354.474,396.183C352.129,399.838 345.562,410.346 344.219,412.494C344.059,412.751 343.87,412.989 343.656,413.203C343.484,413.375 343.275,413.584 343.115,413.744C342.949,413.91 342.765,414.056 342.566,414.181C340.633,415.389 329.875,422.112 326.141,424.446C325.395,424.913 324.823,425.612 324.515,426.437C323.78,428.54 321.767,430.026 319.41,430.026C316.375,430.026 313.91,427.561 313.91,424.526C313.91,424.526 313.91,424.452 313.91,424.341C313.91,423.637 313.67,422.954 313.231,422.404C311.455,420.185 306.765,414.322 306.05,413.428C305.988,413.351 305.924,413.277 305.857,413.205C305.022,412.305 299.207,406.043 297.644,404.36ZM323.53,380.755C323.485,379.343 322.697,378.059 321.458,377.378C320.22,376.697 318.714,376.721 317.497,377.44C315.379,378.691 313.22,379.967 312.051,380.658C311.47,381.001 310.985,381.486 310.642,382.066C309.958,383.225 308.7,385.354 307.465,387.443C306.749,388.655 306.723,390.154 307.396,391.39C308.069,392.627 309.342,393.418 310.749,393.475C312.499,393.545 314.239,393.614 315.474,393.664C316.589,393.708 317.673,393.285 318.462,392.495C319.625,391.333 321.354,389.604 322.512,388.446C323.293,387.664 323.717,386.594 323.681,385.489C323.642,384.256 323.586,382.513 323.53,380.755ZM338.223,383.926C338.794,383.926 339.302,383.565 339.491,383.026C339.68,382.488 339.508,381.889 339.062,381.532C338.918,381.417 338.832,381.348 338.832,381.348L338.638,381.18C338.638,381.18 338.212,380.785 337.631,380.246C337.091,379.744 336.303,379.617 335.632,379.922C334.962,380.227 334.54,380.906 334.564,381.642C334.564,381.661 334.565,381.68 334.566,381.699C334.605,382.94 335.623,383.926 336.864,383.926C337.295,383.926 337.758,383.926 338.223,383.926ZM324.91,409.744C324.91,411.198 325.699,412.537 326.971,413.242C328.243,413.947 329.797,413.906 331.03,413.136C333.639,411.505 336.38,409.792 337.687,408.975C338.202,408.653 338.637,408.218 338.959,407.703C339.776,406.396 341.489,403.655 343.12,401.046C343.891,399.812 343.932,398.258 343.227,396.986C342.522,395.715 341.182,394.926 339.728,394.926C337.305,394.926 334.821,394.926 333.245,394.926C332.184,394.926 331.167,395.347 330.417,396.097C329.198,397.316 327.3,399.213 326.082,400.432C325.331,401.182 324.91,402.2 324.91,403.261C324.91,404.837 324.91,407.321 324.91,409.744ZM311.675,404.521C310.924,404.49 310.229,404.916 309.915,405.599C309.6,406.282 309.729,407.087 310.241,407.638C310.781,408.22 311.175,408.644 311.175,408.644L311.343,408.839C311.343,408.839 311.404,408.915 311.506,409.043C311.864,409.49 312.466,409.663 313.007,409.473C313.548,409.283 313.91,408.773 313.91,408.199C313.91,407.735 313.91,407.273 313.91,406.843C313.91,405.595 312.925,404.571 311.679,404.521C311.678,404.521 311.676,404.521 311.675,404.521Z"/>
    </g>
</svg>
